<?xml version="1.0" encoding="UTF-8" standalone="no"?>
<!-- Created with Inkscape (http://www.inkscape.org/) -->

<svg
   xmlns:dc="http://purl.org/dc/elements/1.1/"
   xmlns:cc="http://creativecommons.org/ns#"
   xmlns:rdf="http://www.w3.org/1999/02/22-rdf-syntax-ns#"
   xmlns:svg="http://www.w3.org/2000/svg"
   xmlns="http://www.w3.org/2000/svg"
   xmlns:sodipodi="http://sodipodi.sourceforge.net/DTD/sodipodi-0.dtd"
   xmlns:inkscape="http://www.inkscape.org/namespaces/inkscape"
   id="svg3987"
   version="1.1"
   inkscape:version="0.92.1 r15371"
   width="692.41864"
   height="134.438"
   sodipodi:docname="parabolica.svg"
   inkscape:export-filename="/home/emma/Documents/HTML+CSS+JS/ceit/parabolica_ceit.png"
   inkscape:export-xdpi="200"
   inkscape:export-ydpi="200">
  <metadata
     id="metadata3993">
    <rdf:RDF>
      <cc:Work
         rdf:about="">
        <dc:format>image/svg+xml</dc:format>
        <dc:type
           rdf:resource="http://purl.org/dc/dcmitype/StillImage" />
        <dc:title></dc:title>
      </cc:Work>
    </rdf:RDF>
  </metadata>
  <defs
     id="defs3991" />
  <sodipodi:namedview
     pagecolor="#ffffff"
     bordercolor="#666666"
     borderopacity="1"
     objecttolerance="10"
     gridtolerance="10"
     guidetolerance="10"
     inkscape:pageopacity="0"
     inkscape:pageshadow="2"
     inkscape:window-width="1600"
     inkscape:window-height="836"
     id="namedview3989"
     showgrid="false"
     fit-margin-top="0"
     fit-margin-left="0"
     fit-margin-right="0"
     fit-margin-bottom="0"
     inkscape:zoom="1.066308"
     inkscape:cx="379.43441"
     inkscape:cy="-62.89567"
     inkscape:window-x="0"
     inkscape:window-y="27"
     inkscape:window-maximized="1"
     inkscape:current-layer="svg3987" />
  <path
     style="fill:#ff4500;fill-opacity:1;stroke:none;stroke-width:0.34085816px;stroke-linecap:butt;stroke-linejoin:miter;stroke-opacity:1"
     d="m 43.041239,96.91616 -3.277511,11.97986 H 26.540673 l -4.407688,25.42896 86.006375,0.11302 -4.85975,-25.76801 H 91.6388 L 81.580214,82.449911 c 0,0 -7.346108,7.459162 -17.969775,11.753829 -7.527406,3.04298 -17.291698,3.2775 -20.5692,2.71242 z"
     id="path4031"
     inkscape:connector-curvature="0"
     sodipodi:nodetypes="ccccccccsc" />
  <path
     style="fill:#ff4500;fill-opacity:1;stroke:none;stroke-width:0.34085816px;stroke-linecap:butt;stroke-linejoin:miter;stroke-opacity:1"
     d="m 30.515678,91.70932 c 0,0 47.289531,-1.10745 67.105026,-45.994829 C 79.862289,112.94526 30.515678,91.70932 30.515678,91.70932 Z"
     id="path4037"
     inkscape:connector-curvature="0"
     sodipodi:nodetypes="ccc" />
  <path
     style="fill:#ff4500;fill-opacity:1;stroke:none;stroke-width:0.34085816px;stroke-linecap:butt;stroke-linejoin:miter;stroke-opacity:1"
     d="M 22.784644,21.499358 C 20.478163,23.54458 -8.9856338,48.787707 2.752134,75.007787 14.771519,101.85695 59.427056,85.82465 77.172541,70.130992 94.66684,54.659473 116.16245,15.349706 84.990156,2.0007779 73.929956,-2.7355294 47.664346,0.5770699 29.900529,15.814246"
     id="path4049"
     inkscape:connector-curvature="0"
     sodipodi:nodetypes="csssc" />
  <path
     style="fill:#ffffff;fill-opacity:1;stroke:none;stroke-width:1.26117527;stroke-linecap:butt;stroke-linejoin:round;stroke-miterlimit:4;stroke-dasharray:none;stroke-opacity:1"
     d="m 28.351936,25.846869 23.175249,28.898505 c 0,0 3.676086,1.601026 3.676086,-2.321483 L 32.667323,21.92435"
     id="path4577"
     inkscape:connector-curvature="0" />
  <ellipse
     style="fill:#ffffff;fill-opacity:1;stroke:#ff4500;stroke-width:1.26117527;stroke-linejoin:round;stroke-miterlimit:4;stroke-dasharray:none;stroke-opacity:1"
     id="path4051"
     cx="27.755173"
     cy="20.516287"
     rx="5.1731825"
     ry="5.2574944" />
  <g
     aria-label="CEIT"
     style="font-style:normal;font-variant:normal;font-weight:normal;font-stretch:normal;font-size:53.33353043px;line-height:1.25;font-family:'Basica v.2012';-inkscape-font-specification:'Basica v.2012, Normal';font-variant-ligatures:normal;font-variant-caps:normal;font-variant-numeric:normal;font-feature-settings:normal;text-align:start;letter-spacing:0px;word-spacing:0px;writing-mode:lr-tb;text-anchor:start;fill:#000000;fill-opacity:1;stroke:none;stroke-width:1.0000037"
     id="text4559">
    <path
       d="M 143.79163,0.56250349 Q 143.88538,1.385808e-6 144.44788,1.385808e-6 H 302.60472 Q 303.16722,0.09375174 303.16722,0.56250349 V 36.093886 q 0,0.562502 -0.5625,0.562502 H 184.47928 v 61.125229 h 118.12544 q 0.5625,0.09375 0.5625,0.562502 V 133.8755 q 0,0.5625 -0.5625,0.5625 H 144.44788 q -0.65625,0 -0.65625,-0.5625 z"
       style="font-style:normal;font-variant:normal;font-weight:normal;font-stretch:normal;font-size:192.00071716px;font-family:'Basica v.2012';-inkscape-font-specification:'Basica v.2012, Normal';font-variant-ligatures:normal;font-variant-caps:normal;font-variant-numeric:normal;font-feature-settings:normal;text-align:start;writing-mode:lr-tb;text-anchor:start;stroke-width:1.0000037"
       id="path4525" />
    <path
       d="M 312.54225,0.56250349 Q 312.636,1.385808e-6 313.1985,1.385808e-6 H 471.35534 Q 471.91785,0.09375174 471.91785,0.56250349 V 36.093886 q 0,0.562502 -0.56251,0.562502 H 353.2299 v 12.375047 h 118.12544 q 0.56251,0.09375 0.56251,0.562502 v 35.531382 q 0,0.562502 -0.56251,0.562502 H 353.2299 v 12.093796 h 118.12544 q 0.56251,0.09375 0.56251,0.562502 V 133.8755 q 0,0.5625 -0.56251,0.5625 H 313.1985 q -0.65625,0 -0.65625,-0.5625 z"
       style="font-style:normal;font-variant:normal;font-weight:normal;font-stretch:normal;font-size:192.00071716px;font-family:'Basica v.2012';-inkscape-font-specification:'Basica v.2012, Normal';font-variant-ligatures:normal;font-variant-caps:normal;font-variant-numeric:normal;font-feature-settings:normal;text-align:start;writing-mode:lr-tb;text-anchor:start;stroke-width:1.0000037"
       id="path4527" />
    <path
       d="M 522.82428,1.385808e-6 Q 523.48053,0.09375174 523.48053,0.56250349 V 133.8755 q 0,0.5625 -0.65625,0.5625 h -40.87515 q -0.65625,0 -0.65625,-0.5625 V 0.56250349 Q 481.38663,1.385808e-6 481.94913,1.385808e-6 Z"
       style="font-style:normal;font-variant:normal;font-weight:normal;font-stretch:normal;font-size:192.00071716px;font-family:'Basica v.2012';-inkscape-font-specification:'Basica v.2012, Normal';font-variant-ligatures:normal;font-variant-caps:normal;font-variant-numeric:normal;font-feature-settings:normal;text-align:start;writing-mode:lr-tb;text-anchor:start;stroke-width:1.0000037"
       id="path4529" />
    <path
       d="m 591.16828,37.593892 h -57.46897 q -0.65625,0 -0.65625,-0.562502 V 0.56250349 Q 533.13681,1.385808e-6 533.69931,1.385808e-6 H 691.85615 Q 692.41866,0.09375174 692.41866,0.56250349 V 37.03139 q 0,0.562502 -0.56251,0.562502 H 634.01219 V 133.8755 q 0,0.5625 -0.65626,0.5625 h -41.5314 q -0.65625,0 -0.65625,-0.5625 z"
       style="font-style:normal;font-variant:normal;font-weight:normal;font-stretch:normal;font-size:192.00071716px;font-family:'Basica v.2012';-inkscape-font-specification:'Basica v.2012, Normal';font-variant-ligatures:normal;font-variant-caps:normal;font-variant-numeric:normal;font-feature-settings:normal;text-align:start;writing-mode:lr-tb;text-anchor:start;stroke-width:1.0000037"
       id="path4531" />
  </g>
</svg>
